<svg height="5px" viewBox="0 0 481 481.86984" width="5px" xmlns="http://www.w3.org/2000/svg" xmlns:xlink="http://www.w3.org/1999/xlink"><linearGradient id="a"><stop offset="0" stop-color="#006df0"/><stop offset="1" stop-color="#00e7f0"/></linearGradient><linearGradient id="b" gradientUnits="userSpaceOnUse" x1="376.358062" x2="376.358062" xlink:href="#a" y1="474.421884" y2="9.781884"/><linearGradient id="c" gradientUnits="userSpaceOnUse" x1="90.286062" x2="90.286062" xlink:href="#a" y1="474.421884" y2="9.781884"/><linearGradient id="d" gradientUnits="userSpaceOnUse" x1="373.270062" x2="373.270062" xlink:href="#a" y1="474.421884" y2="9.781884"/><linearGradient id="e" gradientUnits="userSpaceOnUse" x1="206.398062" x2="206.398062" xlink:href="#a" y1="474.421884" y2="9.781884"/><path d="m472.375 233.949219h-192.082031c-.929688.015625-1.851563.195312-2.71875.527343-.113281.042969-.222657.050782-.335938.089844-.113281.039063-.320312.214844-.496093.3125-.601563.296875-1.160157.671875-1.664063 1.117188-.214844.171875-.421875.355468-.617187.554687-.589844.625-1.070313 1.34375-1.429688 2.128907 0 .070312-.089844.117187-.113281.183593 0 .0625 0 .144531-.046875.214844-.304688.804687-.46875 1.652344-.496094 2.511719 0 .265625.015625.535156.046875.800781.039063.667969.167969 1.332031.382813 1.96875.058593.191406.058593.382813.128906.566406.074218.183594.128906.191407.175781.304688.378906.84375.902344 1.617187 1.542969 2.28125l142.800781 142.796875c.75.75 1.644531 1.34375 2.625 1.746094.960937.390624 1.992187.597656 3.03125.597656h.480469c.316406-.0625.625-.148438.929687-.253906.667969-.09375 1.320313-.277344 1.941407-.542969.417968-.230469.8125-.5 1.175781-.800781.402343-.214844.777343-.464844 1.128906-.753907.128906-.117187.167969-.285156.28125-.421875.109375-.136718.253906-.167968.351563-.289062 32.972656-42.15625 50.914062-94.121094 50.976562-147.640625 0-4.417969-3.582031-8-8-8zm-50.128906 138.640625-122.640625-122.640625h164.625c-1.625 44.121093-16.226563 86.78125-41.984375 122.640625zm0 0" fill="url(#b)"/><path d="m144.34375 408.140625c-44.125-25.402344-76.328125-67.320313-89.507812-116.5-13.175782-49.179687-6.246094-101.582031 19.265624-145.644531 2.210938-3.828125.898438-8.722656-2.929687-10.929688-3.832031-2.210937-8.726563-.898437-10.933594 2.929688-27.625 47.742187-35.125 104.507812-20.851562 157.785156 14.277343 53.277344 49.160156 98.6875 96.957031 126.214844 3.828125 2.210937 8.722656.898437 10.929688-2.929688 2.210937-3.828125.898437-8.722656-2.929688-10.933594zm0 0" fill="url(#c)"/><path d="m272.292969 217.949219h201.953125c2.289062 0 4.464844-.980469 5.984375-2.695313 1.515625-1.710937 2.226562-3.992187 1.953125-6.265625-13.371094-109.371093-99.558594-195.554687-208.929688-208.925781-2.273437-.285156-4.5625.425781-6.273437 1.953125-1.707031 1.515625-2.6875 3.695313-2.6875 5.980469v201.953125c0 4.417969 3.582031 8 8 8zm192.746093-16h-184.746093v-184.742188c94.851562 15.542969 169.199219 89.890625 184.746093 184.742188zm0 0" fill="url(#d)"/><path d="m411.765625 402.988281c-.398437-.976562-.988281-1.867187-1.734375-2.613281l-161.738281-161.738281v-228.765625c0-4.417969-3.582031-8-8-8-108.585938.0625-203.605469 73.027344-231.691407 177.921875-28.085937 104.894531 17.757813 215.578125 111.785157 269.894531 94.027343 54.316406 212.808593 38.730469 289.644531-38 2.277344-2.285156 2.960938-5.714844 1.734375-8.699219zm-329.871094-2.636719c-63.019531-63.058593-82.667969-157.472656-50.03125-240.433593 32.632813-82.960938 111.339844-138.683594 200.429688-141.902344v223.933594c.003906 1.042969.210937 2.078125.609375 3.039062.398437.964844.984375 1.839844 1.71875 2.578125l158.335937 158.382813c-88.371093 81.960937-225.699219 79.488281-311.0625-5.597657zm0 0" fill="url(#e)"/></svg>